<?xml version="1.0" encoding="UTF-8"?>
<svg id="_图层_2" data-name="图层 2" xmlns="http://www.w3.org/2000/svg" viewBox="0 0 180.28 490.2">
  <defs>
    <style>
      .cls-1 {
        fill: #d0bfae;
      }
    </style>
  </defs>
  <g id="_图层_1_图像" data-name="图层 1 图像">
    <g>
      <path class="cls-1" d="m145.44,66.47c14.31,3.07,27.24-1.2,32.37-10.18,2.81-4.93,2.45-9.8,2.32-11.06-1.08-10.5-11.51-19.84-26.23-22.98L53.08,1.16c-15.51-3.39-29.07.84-33.77,9.76-2.47,4.68-1.85,9.41-1.63,10.91,1.55,10.78,12.21,19.89,26.76,23.51l101,21.12h0ZM47.65,30c-5.68-1.27-9.88-4.3-10.4-7.94-.07-.46-.22-1.6.34-2.76,1.38-2.87,6.28-4.07,12.29-2.8l100.82,21.08c.65.14,1.29.28,1.94.42,5.24.62,8.18,5.53,7.09,9.1-.89,2.93-4.55,5.17-8.62,4.49-.82-.16-1.64-.31-2.46-.47h0S47.65,30,47.65,30Z"/>
      <path class="cls-1" d="m177.15,332.53c.09.02.17.04.26.07.05-5.38.1-10.76.15-16.14-.14-.02-.28-.05-.42-.07h0s-154.2-32.25-154.2-32.25c0,0,0-.02,0-.02-1.17-.29-2.33-.58-3.5-.88-.05,5.38-.1,10.76-.15,16.14.14.02.28.05.42.07v.02s85.65,17.91,85.65,17.91l-61.71-1.26-.28,13.75,133.79,2.72v-.06Z"/>
      <path class="cls-1" d="m140.77,178c2.3.65,5.02,1.71,7.8,3.51,8.81,5.7,11.89,14.69,12.85,18.02,5.22,1.03,10.44,2.06,15.66,3.09,0-1.03.01-2.06.02-3.1,0-21.8,0-43.61,0-65.41-5.12-1.1-10.23-2.2-15.35-3.3-.11,13.41-.22,26.82-.32,40.23-.7-.73-1.49-1.47-2.38-2.2-3.79-3.07-7.78-4.5-10.72-5.2-1.45-.33-2.89-.66-4.34-.98l-122.31-25.58c-1.17-.29-2.33-.58-3.5-.88-.05,5.38-.1,10.76-.15,16.14.15.03.29.05.44.08l122.31,25.58Z"/>
      <path class="cls-1" d="m145.49,435.12c14.31,3.07,27.24-1.2,32.37-10.18,2.81-4.93,2.45-9.8,2.32-11.06-1.08-10.5-11.51-19.84-26.23-22.98l-100.82-21.08c-15.51-3.39-29.07.84-33.77,9.76-2.47,4.68-1.85,9.41-1.63,10.91,1.55,10.78,12.21,19.89,26.76,23.51l101,21.12h0Zm-97.79-36.46c-5.68-1.27-9.88-4.3-10.4-7.94-.07-.46-.22-1.6.34-2.76,1.38-2.87,6.28-4.07,12.29-2.8l100.82,21.08c.65.14,1.29.28,1.94.42,5.24.62,8.18,5.53,7.09,9.1-.89,2.93-4.55,5.17-8.62,4.49-.82-.16-1.64-.31-2.46-.47h0s-101-21.12-101-21.12Z"/>
      <path class="cls-1" d="m159.76,118.89c10.6-4.63,17.37-16.7,17.39-30.69l-.02-14.97c-5.22-1.1-10.44-2.21-15.66-3.31v3.15c.03.53-.11.88-.23,1.09-.54,1-2.05,1.47-3.73,1.11L21.99,46.94c-1.25-.3-2.5-.6-3.74-.9,0,5.37,0,10.75,0,16.12.18.04.35.08.53.12,47.51,9.93,95.02,19.87,142.53,29.8.1,5.1-2.38,9.81-6.55,12.27-4.43,2.62-8.98,1.63-10.03,1.37-8.4-1.99-16.79-3.98-25.19-5.97-1.2-.38-3-1.1-4.83-2.53-2.36-1.84-3.62-3.96-4.24-5.2-1.71,1.58-3.71,3.27-6.02,4.95-2.23,1.63-4.38,2.98-6.35,4.1.74,1.45,1.74,3.04,3.09,4.63,4.63,5.46,10.55,7.49,13.58,8.28,9.91,2.19,19.82,4.38,29.72,6.57h0s0,0,0,0c3.55.6,9.3.96,15.25-1.64Z"/>
      <path class="cls-1" d="m67.5,104.63c5.41,1.3,15.39,2.78,25.72-1.26,6.13-2.4,11.01-6.21,13.95-8.5,4.16-3.25,6.58-5.94,7.94-7.6,1.35-1.63,2.37-3.1,3.09-4.2-6.35-1.33-12.7-2.66-19.04-3.98-.92,1.28-2.27,2.92-4.13,4.6-.82.73-2.29,2.04-4.41,3.27-3.47,2-6.61,2.56-8.41,2.87-4.02.69-7.51.4-10.05-.06-9.88-2.19-19.76-4.39-29.63-6.58-9.01-1.37-16.41-.14-19.56,2.43-1.73,1.41-2.85,3.11-2.85,3.11-.7,1.18-1.7,3.2-2.12,5.89-.39,2.53-.11,4.64.17,5.95,5.08,1.15,10.15,2.29,15.23,3.44-.14-.46-.53-1.9.18-3.29.91-1.79,3.27-2.76,5.75-2.19,0,0,0,0,0,0,9.39,2.03,18.79,4.06,28.18,6.1Z"/>
      <path class="cls-1" d="m159.59,146.48c.06-5.35.12-10.7.17-16.05,0,0,0,0,0,0h0s-127.41-26.64-127.41-26.64c-4.73-1.07-9.47-2.15-14.2-3.22.82,3.91,1.64,7.82,2.47,11.73.11.41.24.8.39,1.15,1.73,3.94,6.44,5.29,8.13,5.69l127.09,26.58c1.12.26,2.24.51,3.36.77Z"/>
      <path class="cls-1" d="m112.71,220.73c3.32-2.74,5.47-5.63,6.78-7.71,19.5,4.13,39,8.25,58.5,12.38.05-5.38.1-10.76.15-16.14-11.71-2.63-23.43-5.26-35.14-7.9-5.19-1.4-13.55-4.63-18.71-12.44-.55-.83-1.03-1.67-1.46-2.5.1,1.86.17,3.78.21,5.76.04,1.91.04,3.77.01,5.57.02-1.69.02-3.41,0-5.18-.05-3.17-.19-6.23-.4-9.15-5.64.04-11.27.08-16.91.13.23,2.82.34,5.79.29,8.89,0,.6-.02,1.19-.05,1.78-28-5.87-55.99-11.73-83.99-17.6-1.27-.32-2.55-.65-3.82-.97-.05,5.38-.1,10.76-.15,16.14.15.03.29.05.44.08v.02c27.81,5.82,55.63,11.63,83.45,17.45-1.28,1.54-2.92,3.21-5,4.78-6.52,4.93-13.5,6.01-17.22,6.27,8.3,1.73,16.6,3.47,24.9,5.2,2.16-.89,5.1-2.39,8.11-4.87Z"/>
      <path class="cls-1" d="m90.45,291.8h0c28.99,6.11,57.98,12.22,86.97,18.33.05-5.38.1-10.76.15-16.14-27.91-5.83-55.83-11.67-83.74-17.5-4.12-.98-7.13-3.36-7.51-6.16-.05-.35-.16-1.29.28-2.24,1.12-2.38,5.08-3.46,9.89-2.53l60.82,12.72c4.62.96,9.24,1.93,13.86,2.89,1.98.53,4.05-.02,5.34-1.44,1.33-1.46,1.31-3.25,1.3-3.67v-12.86c-4.79-1-9.57-2.01-14.36-3.01.02,1.26-.61,2.34-1.55,2.7-.55.21-1.08.12-1.38.04l-60.82-12.72c-13.05-2.54-24.61,1.4-29.01,9.46-2.41,4.41-2,8.82-1.86,10.22.05.47.13.94.22,1.41l-36.13-7.55c-.95-.23-15.21-3.82-16.77-12.62-.12-.68-.35-2.05.14-3.62,1.56-5.02,9.18-8.08,19.17-7.84-.02-4.18-.03-8.35-.05-12.53,47.53,9.99,95.07,19.98,142.6,29.97.05-5.38.1-10.76.15-16.14-52.16-10.9-104.31-21.81-156.47-32.71,0,0,0,0,0,0-1.17-.29-2.33-.58-3.5-.88-.05,5.38-.1,10.76-.15,16.14.15.03.29.05.44.08h0s4.73,1,4.73,1c-9.36,1.53-17,6.33-20.7,13.41-3.46,6.61-2.42,13.12-2.1,14.93,2.13,12.27,13.77,22.38,29.31,26.16,20.25,4.23,40.5,8.47,60.75,12.7Z"/>
      <path class="cls-1" d="m177.57,373.68c-16.86-3.62-33.73-7.25-50.59-10.87-5.26-1.12-17.59-4.27-28.08-12.48-2.45-1.92-6.73-5.32-10.67-11.15-2.21-3.26-3.62-6.27-4.53-8.49-13.45-.27-26.89-.55-40.34-.82,0,.16,0,.33-.01.49,17.96,7.87,35.92,15.74,53.88,23.61.06.02,1.04.44,1.13,1.31,0,.05.04.41-.14.71-.37.64-1.52.86-2.85.51h0s-72.42-15.14-72.42-15.14h0c-1.17-.29-2.33-.58-3.5-.87-.05,5.38-.1,10.76-.15,16.14.15.03.29.05.44.08,0,0,0,0,0,0l154.18,32.24s0,0,0,0c1.17.29,2.33.58,3.5.88.05-5.38.1-10.76.15-16.14Z"/>
      <path class="cls-1" d="m158.92,489.69c1.67-.35,10.69-2.24,15.61-10.5.35-.59,3.79-6.56,2.72-13.94-1.41-9.78-10.18-18.14-22.07-21.28l-12.61-2.64c-4.52-.52-10.14-.78-16.54-.2-5.39.49-10.09,1.47-13.97,2.53l-28.12,8.82c-23.05,8.47-42.5,8.51-48.4-.38-.99-1.5-1.78-3.51-1.92-6.29.01-1.05.03-2.09.04-3.14.22-2.86,1.74-5.28,4.02-6.23,1.33-.56,2.59-.47,3.35-.34l24.74,5.17,3.21-15.34-24.74-5.17c-.77-.15-14.71-2.6-22.45,6.72-2.61,3.14-3.65,6.58-4.09,8.98-.27,3.14-.54,6.28-.8,9.41-.05,3.18.3,10.03,4.71,16.54,0,0,3.14,4.64,8.64,8.08,9.74,6.1,32.07,5.5,58.38-3.06l28.12-8.82c3.12-1.01,7.26-2.02,12.21-2.34,4.04-.27,7.57,0,10.41.4l12.61,2.64c.5.18,4.44,1.7,5.65,5.76.09.3.81,2.83-.22,5.3-1.56,3.77-6.67,6.1-12.6,5.42-5.02-.28-10.03-.56-15.05-.83-.35,4.7-.7,9.39-1.05,14.09,8.17.38,16.34.76,24.51,1.14,1.35.04,3.36,0,5.71-.49Z"/>
    </g>
  </g>
</svg>