<?xml version="1.0" encoding="UTF-8"?>
<svg id="_图层_2" data-name="图层 2" xmlns="http://www.w3.org/2000/svg" viewBox="0 0 178.04 20.62">
  <defs>
    <style>
      .cls-1, .cls-2, .cls-3, .cls-4, .cls-5, .cls-6 {
        font-family: Soligant, Soligant;
        font-size: 14.99px;
      }

      .cls-7 {
        fill: #6c2724;
      }

      .cls-8 {
        fill: #d0bfae;
      }

      .cls-2 {
        letter-spacing: .01em;
      }

      .cls-9 {
        font-family: ChillDuanHeiSongLight, 'ChillDuanHeiSongLight GBpc-EUC-H';
      }

      .cls-9, .cls-10 {
        font-size: 11px;
      }

      .cls-3 {
        letter-spacing: .02em;
      }

      .cls-10 {
        font-family: FZFW-ZhuZiGuDianS-LMC--GB1-0, 'FZFW ZhuZi GuDianS LMC';
      }

      .cls-4 {
        letter-spacing: -.02em;
      }

      .cls-5 {
        letter-spacing: -.03em;
      }

      .cls-11 {
        fill: #f3eae4;
        font-family: ValkyRegular, Valky;
        font-size: 14.34px;
      }

      .cls-6 {
        letter-spacing: 0em;
      }
    </style>
  </defs>
  <g id="_图层_1_图像" data-name="图层 1 图像">
    <text class="cls-8" transform="translate(24.05 14.32)"><tspan class="cls-5" x="0" y="0">F</tspan><tspan class="cls-1" x="5.85" y="0">amm</tspan><tspan class="cls-4" x="35.87" y="0">e</tspan><tspan class="cls-3" x="42.55" y="0">l</tspan><tspan class="cls-2" x="45.97" y="0">s</tspan><tspan class="cls-6" x="51.47" y="0">en</tspan><tspan class="cls-9" x="65.95" y="-.58">·</tspan><tspan class="cls-10" x="76.96" y="-.79">范梅尔森大公国</tspan></text>
    <path class="cls-7" d="m14.06,0h-7.66c-.92,0-1.77.49-2.23,1.29L.34,7.92c-.46.8-.46,1.78,0,2.57l3.83,6.63c.46.8,1.31,1.29,2.23,1.29h7.66c.92,0,1.77-.49,2.23-1.29l3.83-6.63c.46-.8.46-1.78,0-2.57l-3.83-6.63c-.46-.8-1.31-1.29-2.23-1.29Z"/>
    <text class="cls-11" transform="translate(1.96 14.39)"><tspan x="0" y="0">06</tspan></text>
  </g>
</svg>