<?xml version="1.0" encoding="UTF-8"?>
<svg id="_图层_2" data-name="图层 2" xmlns="http://www.w3.org/2000/svg" viewBox="0 0 213.75 20.89">
  <defs>
    <style>
      .cls-1, .cls-2 {
        font-family: Soligant, Soligant;
        font-size: 14.99px;
      }

      .cls-3 {
        fill: #e6cab3;
        stroke: #161e22;
        stroke-miterlimit: 10;
      }

      .cls-4 {
        fill: #d0bfae;
      }

      .cls-5 {
        font-family: ChillDuanHeiSongLight, 'ChillDuanHeiSongLight GBpc-EUC-H';
      }

      .cls-5, .cls-6 {
        font-size: 11px;
      }

      .cls-2 {
        letter-spacing: .01em;
      }

      .cls-6 {
        font-family: FZFW-ZhuZiGuDianS-LMC--GB1-0, 'FZFW ZhuZi GuDianS LMC';
      }

      .cls-7 {
        letter-spacing: -.03em;
      }

      .cls-8 {
        fill: #161e22;
        font-family: ValkyRegular, Valky;
        font-size: 14.34px;
      }
    </style>
  </defs>
  <g id="_图层_1_图像" data-name="图层 1 图像">
    <text class="cls-4" transform="translate(24.1 14.59)"><tspan class="cls-1" x="0" y="0">the Knighth</tspan><tspan class="cls-2" x="68.48" y="0">oo</tspan><tspan class="cls-1" x="83.2" y="0">d</tspan><tspan class="cls-5" x="90.61" y="-.58">·</tspan><tspan class="cls-6" x="101.61" y="-.79">大陆骑士团俱乐部</tspan></text>
    <path class="cls-3" d="m14.56.5h-7.66c-.92,0-1.77.49-2.23,1.29L.84,8.42c-.46.8-.46,1.78,0,2.57l3.83,6.63c.46.8,1.31,1.29,2.23,1.29h7.66c.92,0,1.77-.49,2.23-1.29l3.83-6.63c.46-.8.46-1.78,0-2.57l-3.83-6.63c-.46-.8-1.31-1.29-2.23-1.29Z"/>
    <text class="cls-8" transform="translate(5.23 14.66)"><tspan class="cls-7" x="0" y="0">1</tspan><tspan x="3.14" y="0">0</tspan></text>
  </g>
</svg>