<?xml version="1.0" encoding="UTF-8"?>
<svg id="_图层_2" data-name="图层 2" xmlns="http://www.w3.org/2000/svg" viewBox="0 0 213.01 20.62">
  <defs>
    <style>
      .cls-1, .cls-2, .cls-3, .cls-4, .cls-5, .cls-6, .cls-7 {
        font-family: Soligant, Soligant;
        font-size: 14.99px;
      }

      .cls-2 {
        letter-spacing: .02em;
      }

      .cls-8 {
        fill: #d0bfae;
      }

      .cls-9 {
        font-family: ChillDuanHeiSongLight, 'ChillDuanHeiSongLight GBpc-EUC-H';
      }

      .cls-9, .cls-10 {
        font-size: 11px;
      }

      .cls-3 {
        letter-spacing: .01em;
      }

      .cls-11 {
        letter-spacing: -.05em;
      }

      .cls-10 {
        font-family: FZFW-ZhuZiGuDianS-LMC--GB1-0, 'FZFW ZhuZi GuDianS LMC';
      }

      .cls-4 {
        letter-spacing: -.02em;
      }

      .cls-5 {
        letter-spacing: -.03em;
      }

      .cls-12 {
        fill: #5e4f67;
      }

      .cls-13 {
        fill: #f3eae4;
        font-family: ValkyRegular, Valky;
        font-size: 14.34px;
      }

      .cls-6 {
        letter-spacing: 0em;
      }

      .cls-7 {
        letter-spacing: 0em;
      }
    </style>
  </defs>
  <g id="_图层_1_图像" data-name="图层 1 图像">
    <text class="cls-8" transform="translate(23.6 14.32)"><tspan class="cls-1" x="0" y="0">L</tspan><tspan class="cls-3" x="6.19" y="0">u</tspan><tspan class="cls-6" x="13.92" y="0">s</tspan><tspan class="cls-5" x="19.2" y="0">c</tspan><tspan class="cls-1" x="25.75" y="0">heins</tspan><tspan class="cls-4" x="56.12" y="0">w</tspan><tspan class="cls-7" x="67.42" y="0">ei</tspan><tspan class="cls-2" x="77.52" y="0">z</tspan><tspan class="cls-1" x="83.38" y="0">e</tspan><tspan class="cls-9" x="90.37" y="-.58">·</tspan><tspan class="cls-10" x="101.37" y="-.79">吕兴施维策侯爵领</tspan></text>
    <path class="cls-12" d="m14.06,0h-7.66c-.92,0-1.77.49-2.23,1.29L.34,7.92c-.46.8-.46,1.78,0,2.57l3.83,6.63c.46.8,1.31,1.29,2.23,1.29h7.66c.92,0,1.77-.49,2.23-1.29l3.83-6.63c.46-.8.46-1.78,0-2.57l-3.83-6.63c-.46-.8-1.31-1.29-2.23-1.29Z"/>
    <text class="cls-13" transform="translate(1.96 14.39)"><tspan class="cls-11" x="0" y="0">0</tspan><tspan x="8.54" y="0">7</tspan></text>
  </g>
</svg>