<?xml version="1.0" encoding="UTF-8"?>
<svg id="_图层_2" data-name="图层 2" xmlns="http://www.w3.org/2000/svg" viewBox="0 0 151.23 20.62">
  <defs>
    <style>
      .cls-1, .cls-2, .cls-3, .cls-4, .cls-5 {
        font-family: Soligant, Soligant;
        font-size: 14.99px;
      }

      .cls-6 {
        fill: #d0bfae;
      }

      .cls-7 {
        font-family: ChillDuanHeiSongLight, 'ChillDuanHeiSongLight GBpc-EUC-H';
        letter-spacing: 0em;
      }

      .cls-7, .cls-8 {
        font-size: 11px;
      }

      .cls-2 {
        letter-spacing: .01em;
      }

      .cls-8 {
        font-family: FZFW-ZhuZiGuDianS-LMC--GB1-0, 'FZFW ZhuZi GuDianS LMC';
      }

      .cls-3 {
        letter-spacing: -.02em;
      }

      .cls-9 {
        fill: #2e5256;
      }

      .cls-4 {
        letter-spacing: -.08em;
      }

      .cls-10 {
        fill: #f3eae4;
        font-family: ValkyRegular, Valky;
        font-size: 14.34px;
      }

      .cls-5 {
        letter-spacing: 0em;
      }
    </style>
  </defs>
  <g id="_图层_1_图像" data-name="图层 1 图像">
    <text class="cls-6" transform="translate(24.05 14.32)"><tspan class="cls-1" x="0" y="0">G</tspan><tspan class="cls-3" x="10.33" y="0">r</tspan><tspan class="cls-1" x="15.9" y="0">a</tspan><tspan class="cls-2" x="22.75" y="0">s</tspan><tspan class="cls-4" x="28.25" y="0">f</tspan><tspan class="cls-5" x="32.45" y="0">ort</tspan><tspan class="cls-7" x="50.15" y="-.58">·</tspan><tspan class="cls-8" x="61.16" y="-.79">格拉斯福王国</tspan></text>
    <path class="cls-9" d="m14.06,0h-7.66c-.92,0-1.77.49-2.23,1.29L.34,7.92c-.46.8-.46,1.78,0,2.57l3.83,6.63c.46.8,1.31,1.29,2.23,1.29h7.66c.92,0,1.77-.49,2.23-1.29l3.83-6.63c.46-.8.46-1.78,0-2.57l-3.83-6.63c-.46-.8-1.31-1.29-2.23-1.29Z"/>
    <text class="cls-10" transform="translate(1.96 14.39)"><tspan x="0" y="0">04</tspan></text>
  </g>
</svg>