<?xml version="1.0" encoding="UTF-8"?>
<svg id="_图层_2" data-name="图层 2" xmlns="http://www.w3.org/2000/svg" viewBox="0 0 173.75 20.62">
  <defs>
    <style>
      .cls-1, .cls-2, .cls-3, .cls-4, .cls-5 {
        font-family: Soligant, Soligant;
        font-size: 14.99px;
      }

      .cls-6 {
        fill: #d0bfae;
      }

      .cls-2 {
        letter-spacing: -.01em;
      }

      .cls-7 {
        font-family: ChillDuanHeiSongLight, 'ChillDuanHeiSongLight GBpc-EUC-H';
      }

      .cls-7, .cls-8 {
        font-size: 11px;
      }

      .cls-3 {
        letter-spacing: .01em;
      }

      .cls-8 {
        font-family: FZFW-ZhuZiGuDianS-LMC--GB1-0, 'FZFW ZhuZi GuDianS LMC';
      }

      .cls-9 {
        fill: #87372a;
      }

      .cls-4 {
        letter-spacing: .04em;
      }

      .cls-10 {
        fill: #f3eae4;
        font-family: ValkyRegular, Valky;
        font-size: 14.34px;
      }

      .cls-5 {
        letter-spacing: 0em;
      }

      .cls-11 {
        letter-spacing: 0em;
      }
    </style>
  </defs>
  <g id="_图层_1_图像" data-name="图层 1 图像">
    <text class="cls-6" transform="translate(24.05 14.32)"><tspan class="cls-4" x="0" y="0">E</tspan><tspan class="cls-5" x="6.82" y="0">ins</tspan><tspan class="cls-2" x="22.71" y="0">t</tspan><tspan class="cls-1" x="27.1" y="0">a</tspan><tspan class="cls-3" x="33.95" y="0">us</tspan><tspan class="cls-1" x="47.18" y="0">en</tspan><tspan class="cls-7" x="61.66" y="-.58">·</tspan><tspan class="cls-8" x="72.67" y="-.79">茵斯陶森王冠领</tspan></text>
    <path class="cls-9" d="m14.06,0h-7.66c-.92,0-1.77.49-2.23,1.29L.34,7.92c-.46.8-.46,1.78,0,2.57l3.83,6.63c.46.8,1.31,1.29,2.23,1.29h7.66c.92,0,1.77-.49,2.23-1.29l3.83-6.63c.46-.8.46-1.78,0-2.57l-3.83-6.63c-.46-.8-1.31-1.29-2.23-1.29Z"/>
    <text class="cls-10" transform="translate(1.96 14.39)"><tspan class="cls-11" x="0" y="0">0</tspan><tspan x="9.1" y="0">5</tspan></text>
  </g>
</svg>