<?xml version="1.0" encoding="UTF-8"?>
<svg id="_图层_2" data-name="图层 2" xmlns="http://www.w3.org/2000/svg" viewBox="0 0 115.64 20.62">
  <defs>
    <style>
      .cls-1, .cls-2 {
        font-family: Soligant, Soligant;
        font-size: 14.99px;
      }

      .cls-3 {
        fill: #d0bfae;
      }

      .cls-2 {
        letter-spacing: -.01em;
      }

      .cls-4 {
        font-family: ChillDuanHeiSongLight, 'ChillDuanHeiSongLight GBpc-EUC-H';
      }

      .cls-4, .cls-5 {
        font-size: 11px;
      }

      .cls-5 {
        font-family: FZFW-ZhuZiGuDianS-LMC--GB1-0, 'FZFW ZhuZi GuDianS LMC';
      }

      .cls-6 {
        fill: #c2682a;
      }

      .cls-7 {
        fill: #f3eae4;
        font-family: ValkyRegular, Valky;
        font-size: 14.34px;
      }

      .cls-8 {
        letter-spacing: -.04em;
      }
    </style>
  </defs>
  <g id="_图层_1_图像" data-name="图层 1 图像">
    <text class="cls-3" transform="translate(24.05 14.32)"><tspan class="cls-1" x="0" y="0">Gun</tspan><tspan class="cls-2" x="25.33" y="0">t</tspan><tspan class="cls-1" x="29.72" y="0">a</tspan><tspan class="cls-4" x="36.57" y="-.58">·</tspan><tspan class="cls-5" x="47.58" y="-.79">君塔王国</tspan></text>
    <path class="cls-6" d="m14.06,0h-7.66c-.92,0-1.77.49-2.23,1.29L.34,7.92c-.46.8-.46,1.78,0,2.57l3.83,6.63c.46.8,1.31,1.29,2.23,1.29h7.66c.92,0,1.77-.49,2.23-1.29l3.83-6.63c.46-.8.46-1.78,0-2.57l-3.83-6.63c-.46-.8-1.31-1.29-2.23-1.29Z"/>
    <text class="cls-7" transform="translate(1.96 14.39)"><tspan class="cls-8" x="0" y="0">0</tspan><tspan x="8.68" y="0">2</tspan></text>
  </g>
</svg>