<?xml version="1.0" encoding="UTF-8"?>
<svg id="_图层_2" data-name="图层 2" xmlns="http://www.w3.org/2000/svg" viewBox="0 0 130.99 131.25">
  <defs>
    <style>
      .cls-1 {
        fill: #a99a8b;
      }

      .cls-2, .cls-3 {
        fill: #d0bfae;
      }

      .cls-4 {
        fill: #161e22;
        stroke: #d0bfae;
        stroke-miterlimit: 10;
      }

      .cls-3 {
        font-family: ValkyRegular, Valky;
        font-size: 17.18px;
      }
    </style>
  </defs>
  <g id="_图层_1_图像" data-name="图层 1 图像">
    <circle class="cls-4" cx="65.5" cy="65.5" r="65"/>
    <g>
      <text class="cls-3" transform="translate(58.87 19.2)"><tspan x="0" y="0">N</tspan></text>
      <text class="cls-3" transform="translate(60.5 123.78)"><tspan x="0" y="0">S</tspan></text>
      <text class="cls-3" transform="translate(7.58 69.89)"><tspan x="0" y="0">W</tspan></text>
      <text class="cls-3" transform="translate(106.57 69.89)"><tspan x="0" y="0">E</tspan></text>
      <path class="cls-1" d="m65.5,30.33c19.39,0,35.17,15.78,35.17,35.17s-15.78,35.17-35.17,35.17-35.17-15.78-35.17-35.17,15.78-35.17,35.17-35.17m0-1c-19.98,0-36.17,16.19-36.17,36.17s16.19,36.17,36.17,36.17,36.17-16.19,36.17-36.17-16.19-36.17-36.17-36.17h0Z"/>
      <g>
        <rect class="cls-2" x="64.84" y="34.67" width=".66" height="61.61"/>
        <rect class="cls-2" x="64.74" y="41.09" width=".66" height="48.78" transform="translate(130.55 .41) rotate(90)"/>
        <path class="cls-2" d="m64.84,107.75v-11.46c.58-.76,1.26-1.57,2.05-2.41.78-.82,1.55-1.53,2.27-2.13h.71c-1.58,2.68-3.38,6.55-4.21,11.46-.31,1.81-.43,3.49-.46,5.01-.12-.15-.24-.31-.36-.46Z"/>
        <path class="cls-2" d="m30.81,66.42c.42.06,9.37,1.31,12.32-3.57.33-.54.62-1.22.78-2.08-.26-.05-.53-.1-.79-.15-.17.59-.39,1.09-.64,1.5-2.13,3.61-7.27,3.86-8.15,3.89-1.17,0-2.35.02-3.52.03v.36Z"/>
        <path class="cls-2" d="m100.24,64.1c-.42-.06-9.37-1.31-12.32,3.57-.33.54-.62,1.22-.78,2.08.26.05.53.1.79.15.17-.59.39-1.09.64-1.5,2.13-3.61,7.27-3.86,8.15-3.89,1.17,0,2.35-.02,3.52-.03v-.36Z"/>
        <path class="cls-2" d="m65.5,23.24v11.46c-.57.76-1.25,1.57-2.05,2.41-.89.93-1.77,1.7-2.57,2.34-.33-.32-.66-.63-.98-.95,1.62-2.18,3.84-5.81,4.79-10.73.36-1.85.47-3.54.46-5.01.12.15.24.31.36.46Z"/>
        <path class="cls-2" d="m42.91,68.33c.5.02,1.01.04,1.51.05,2.89.15,7.11.88,11.03,3.68,5.29,3.79,9.09,10.67,7.48,13.67-.62,1.15-1.65,1.56-1.65,1.56-1.64.64-3.36-.52-3.65-.72-.04.05-.08.1-.12.15.2.21,1.64,1.68,3.57,1.43.25-.03.97-.13,1.64-.66,1.22-.95,1.35-2.6,1.41-3.27.28-3.49-3.56-10.35-10.65-13.84-1.76-.87-4.77-2.04-8.9-2.2-.55.05-1.11.1-1.66.15Z"/>
        <path class="cls-2" d="m42.66,61.82c.21.24.41.48.62.72-.69,1.45-.54,3.12.38,4.31.98,1.25,2.44,1.44,2.74,1.48-.02.03-.04.07-.06.1-.49-.05-1.78-.25-2.8-1.29-1.28-1.3-1.62-3.39-.88-5.32Z"/>
        <path class="cls-2" d="m60.99,39.56c.06-.04.12-.09.18-.13.69.51,2.13,1.42,4.16,1.63,3.46.35,5.93-1.62,6.44-2.05.17.27.34.55.51.82-.17.1-.42.26-.75.42-.58.3-4.22,2.09-8.14.64-.6-.22-1.46-.61-2.4-1.33Z"/>
        <path class="cls-2" d="m63.79,48.61c-.38.46-1.03,1.25-1.83,2.23-3.49,4.24-5.16,6.19-8.57,10.33-.73.88-1.86,2.27-3.27,3.99-.71-.67-1.42-1.35-2.13-2.02,3.15-3.3,6.32-6.7,9.5-10.2,1.7-1.87,3.37-3.73,5.02-5.59.43.42.85.84,1.28,1.26Z"/>
        <path class="cls-2" d="m72.28,39.83c-1.01.9-2.03,1.86-3.06,2.87-1.58,1.55-3.04,3.07-4.38,4.56-.37-.4-.75-.81-1.12-1.21,1.18-1.18,2.48-2.4,3.89-3.64,1.43-1.25,2.82-2.38,4.16-3.4.17.27.34.55.51.82Z"/>
        <rect class="cls-2" x="64.58" y="75.92" width="19.95" height="2.22" transform="translate(-32.38 84.53) rotate(-49.95)"/>
        <path class="cls-2" d="m61.14,51.75c-1.06,1.26-2.13,2.53-3.19,3.79-.49,1.6-2.89,9.98,1.47,16.13.5.71,1.58,2.2,3.56,3.35,4.3,2.52,8.99,1.2,10.16.84.2.14.4.27.6.41,1.45-1.72,2.9-3.45,4.35-5.17-4.16,4.1-9.42,5.87-13.66,4.31-2.08-.77-3.36-2.14-3.93-2.75-4.43-4.83-3.02-11.88-2.72-13.39.33-1.64,1.13-4.48,3.36-7.52Z"/>
        <path class="cls-2" d="m65.5,46.96l-.48.1c0,1.04.08,2.48.48,4.15.13.54.89,3.58,2.98,6.36.36.48,5.78,7.4,13.84,6.59,1.37-.14,3.85-.6,6.59-2.46.18-.22.35-.48.48-.78.66-1.55-.18-3.14-.37-3.47-.55.53-5.57,5.24-12.09,4.07-6.22-1.12-11.2-7.12-11.44-14.56Z"/>
        <path class="cls-2" d="m71.3,55.74c.89.92,2,1.81,3.39,2.48,6.25,3.02,13.06-.77,14.04-1.34-.09-.18-.2-.44-.29-.76-.44-1.59.18-2.94.29-3.17.43-.9,1.05-1.45,1.42-1.73-.06-.12-.11-.24-.17-.35-4.87,5.28-10.86,7.89-15.51,6.2-.86-.31-1.85-.84-2.85-1.74-.11.13-.21.27-.32.4Z"/>
        <path class="cls-2" d="m88.92,61.7c-.16.17-1.04,1.14-.73,1.94,0,0,.08.21.27.38.92.87,4.8.26,5.27.18l2.21.33c-.58.06-6.48.66-7.53-.27-.26-.23-.36-.51-.36-.51-.28-.77.37-1.62.55-1.85.11-.07.21-.14.32-.21Z"/>
        <path class="cls-2" d="m49.55,81.11c1.81,1.08,4.05.98,5.61-.23,1.92-1.49,1.86-3.9,1.85-4.13.08-.03.16-.05.23-.08.4,1.78-.12,3.61-1.4,4.73-1.67,1.47-4.39,1.51-6.36-.07l.06-.22Z"/>
        <path class="cls-2" d="m52.73,83.85c.15.04,2.42.55,3.96-.98.79-.79,1.01-1.74,1.07-2.15.06-.47.12-.95.19-1.42.06-.02.11-.05.17-.07-.03.53-.06,1.05-.09,1.58-.02.28-.16,1.68-1.35,2.66-1.07.89-2.59,1.09-3.95.56v-.16Z"/>
        <path class="cls-2" d="m55.95,85.23c.4.08.71.03.93-.03,1.07-.31,1.84-1.6,1.95-3.23l.1-.05c.26,1.36-.26,2.65-1.24,3.2-.7.39-1.42.29-1.72.23v-.12Z"/>
      </g>
    </g>
  </g>
</svg>